<svg version="1.1" id="Layer_1" xmlns="http://www.w3.org/2000/svg" xmlns:xlink="http://www.w3.org/1999/xlink" x="0px" y="0px"
	 width="100%" viewBox="0 0 214 213" enable-background="new 0 0 214 213" xml:space="preserve">
<path fill="#006DF0" opacity="1.000000" stroke="none" 
	d="
M215.000000,52.531342 
	C213.970322,53.781548 212.543747,54.344288 211.973312,55.379017 
	C207.097519,64.223167 200.296768,70.079842 190.310486,73.245544 
	C176.011871,77.778267 164.061081,73.898254 153.658295,64.683479 
	C148.625916,60.225796 144.774338,54.156033 143.941986,46.852631 
	C143.563690,43.533375 141.590714,40.051495 142.215790,37.031387 
	C143.677582,29.968596 145.228561,22.965391 150.014404,16.805897 
	C155.162674,10.179945 161.339813,6.077816 169.168869,3.842816 
	C170.143768,3.564508 170.845657,2.329859 171.337021,1.269171 
	C176.022095,1.000000 181.044189,1.000000 186.190125,1.269054 
	C186.928665,2.040203 187.469772,2.814932 188.169052,3.003650 
	C199.304276,6.008763 207.793533,12.180789 212.618423,22.944395 
	C212.882584,23.533703 214.182312,23.658813 215.000000,23.999998 
	C215.000000,33.354229 215.000000,42.708458 215.000000,52.531342 
z"/>
<path fill="#006DF1" opacity="1.000000" stroke="none" 
	d="
M114.416664,214.000000 
	C113.847153,213.069977 114.035423,211.691559 113.490448,211.276978 
	C104.888306,204.732849 96.160339,198.354446 87.533333,191.842514 
	C84.262672,189.373703 81.174866,186.662628 76.935829,183.186218 
	C77.361412,182.307922 77.825386,179.829895 79.315704,178.516159 
	C90.887802,168.315262 102.635368,158.312393 114.406395,148.340012 
	C115.420204,147.481125 116.994949,147.284332 118.962143,146.529373 
	C118.962143,154.667282 118.962143,162.073013 118.962143,170.898407 
	C125.514923,169.889023 131.430344,168.886780 137.373749,168.094635 
	C141.272141,167.575043 145.232864,167.517090 149.127670,166.977859 
	C161.195724,165.307068 170.542480,159.591827 175.760468,148.230011 
	C176.619400,146.359741 176.822449,144.103241 176.960495,142.001053 
	C177.705963,130.649216 178.335571,119.289764 179.004608,107.932907 
	C179.051773,107.132240 179.094681,106.331322 179.168579,105.012657 
	C184.816498,105.012657 190.271347,104.823349 195.692947,105.163872 
	C196.851395,105.236641 198.779633,107.190262 198.834702,108.349533 
	C199.142578,114.831070 199.371140,121.364113 198.881149,127.822990 
	C198.343903,134.904724 197.825882,142.172653 195.811951,148.915131 
	C192.650986,159.497635 187.658844,169.494232 178.109238,175.900253 
	C166.407959,183.749634 153.363525,187.673096 139.149887,188.125412 
	C132.659241,188.331970 126.212120,189.906174 118.990479,190.971420 
	C118.990479,197.872269 118.990479,205.467514 118.995239,213.531372 
	C117.611107,214.000000 116.222221,214.000000 114.416664,214.000000 
z"/>
<path fill="#006DF0" opacity="1.000000" stroke="none" 
	d="
M82.600006,1.000000 
	C83.776711,2.047781 84.366638,3.336045 85.358673,4.106600 
	C96.855515,13.036631 108.425957,21.871822 119.943687,30.775101 
	C122.222862,32.536915 122.724304,33.804100 119.735428,36.045952 
	C112.919464,41.158352 106.555054,46.879238 100.080223,52.437977 
	C94.530495,57.202496 89.131546,62.143639 83.542770,66.860764 
	C82.559341,67.690819 80.969162,67.801987 79.047577,68.452049 
	C79.047577,60.357891 79.047577,52.946922 79.047577,44.091240 
	C72.516541,45.113716 66.622246,46.134628 60.697601,46.929272 
	C56.798801,47.452194 52.822708,47.431900 48.939545,48.032150 
	C36.869534,49.897900 26.877306,54.936623 22.445965,67.218941 
	C21.080368,71.003952 20.365929,75.145264 20.080961,79.174881 
	C19.370199,89.225403 19.077353,99.305481 18.588221,109.997559 
	C13.125978,109.997559 7.531171,109.997559 1.468181,109.998779 
	C1.000000,95.645775 1.000000,81.291542 1.274070,66.806976 
	C2.799238,63.392624 3.837963,60.007996 5.338013,56.841942 
	C12.009439,42.761032 23.511600,33.919609 38.160099,30.299168 
	C50.105206,27.346884 62.614182,26.673140 74.875839,25.008944 
	C76.138412,24.837582 77.419411,24.801918 79.000000,24.679405 
	C79.000000,16.588064 79.000000,8.794032 79.000000,1.000000 
	C80.066673,1.000000 81.133339,1.000000 82.600006,1.000000 
z"/>
<path fill="#006DF0" opacity="1.000000" stroke="none" 
	d="
M46.415897,162.923492 
	C47.461975,166.514236 48.356865,169.799255 48.945621,173.138275 
	C50.120468,179.801254 38.419987,191.327026 33.227219,192.150360 
	C19.824471,194.275360 11.874887,186.144348 9.514256,178.933762 
	C6.492137,169.702652 11.188414,157.879852 19.409222,153.262039 
	C23.495703,150.966599 35.984917,152.164032 39.491425,155.424225 
	C41.877438,157.642654 43.926514,160.223450 46.415897,162.923492 
z"/>
<path fill="#6EAA46" opacity="1.000000" stroke="none" 
	d="
M79.178131,111.303482 
	C78.168396,114.354042 77.341980,117.047340 76.417267,119.706451 
	C73.507889,128.072723 71.841614,128.751343 62.824009,125.824715 
	C61.869160,125.514824 60.529175,126.669914 59.363976,126.679626 
	C55.249092,126.713982 50.479626,127.826385 47.175751,126.142052 
	C42.671322,123.845680 43.453842,118.451630 44.603348,114.017281 
	C46.197948,107.865921 48.895885,102.519463 54.510090,98.687202 
	C60.140415,94.843933 65.502708,95.289703 71.407684,97.818459 
	C71.905472,96.546021 72.488823,95.226852 72.943626,93.864769 
	C76.291824,83.837402 76.674500,83.613060 87.999374,85.608452 
	C85.093407,94.083199 82.204941,102.506889 79.178131,111.303482 
M62.687904,118.142380 
	C64.329514,115.077003 66.228874,112.110641 67.466003,108.889900 
	C67.871872,107.833252 66.923950,105.657417 65.911934,104.854744 
	C65.171341,104.267365 62.578918,104.607338 62.083237,105.365341 
	C60.072872,108.439590 57.894871,111.670792 57.025848,115.155144 
	C56.014339,119.210808 57.667603,120.068031 62.687904,118.142380 
z"/>
<path fill="#6EAB46" opacity="1.000000" stroke="none" 
	d="
M134.742447,84.233994 
	C133.956741,88.209183 134.019150,92.965385 127.673767,92.287041 
	C126.456947,92.156960 124.970001,94.553673 122.867386,96.453590 
	C125.571487,96.853935 126.988625,97.063751 128.786041,97.329865 
	C127.421402,100.972809 128.011368,105.856842 121.782974,105.259071 
	C121.245590,105.207489 120.314789,106.858925 119.945763,107.859116 
	C118.231430,112.505577 116.323563,117.119171 115.121643,121.904434 
	C114.088417,126.018082 112.082878,127.671051 107.897881,127.055840 
	C105.952225,126.769821 103.929657,127.006981 101.282669,127.006981 
	C103.642090,119.733353 105.879616,112.835526 108.213142,105.641724 
	C106.842438,105.242287 105.652267,104.895462 104.461472,104.548462 
	C105.790100,101.302727 105.196304,96.599495 110.714348,96.573624 
	C111.141373,96.571617 111.733704,95.372421 111.960197,94.640251 
	C114.480797,86.492371 119.811943,82.798256 128.404144,83.960281 
	C130.367508,84.225815 132.388245,84.066956 134.742447,84.233994 
z"/>
<path fill="#6EAA46" opacity="1.000000" stroke="none" 
	d="
M127.053482,121.057327 
	C128.827820,115.745430 130.548477,110.826012 132.356613,105.656456 
	C130.979309,105.223976 129.933716,104.895653 128.646011,104.491310 
	C130.084763,101.521812 128.720978,96.764633 134.332458,96.758453 
	C134.862900,96.757874 135.701004,95.733665 135.875412,95.051521 
	C138.329010,85.455452 144.991959,82.890953 153.977158,83.967445 
	C155.704178,84.174355 157.477188,83.997162 160.089935,83.997162 
	C157.518097,88.094963 157.807465,93.385078 151.385773,92.382072 
	C150.360077,92.221870 148.945404,94.552086 147.018768,96.391426 
	C149.618561,96.827057 151.148682,97.083450 153.047531,97.401627 
	C151.138580,100.645195 152.210114,105.973351 145.967560,105.229256 
	C145.384216,105.159721 144.309601,107.029022 143.889191,108.156937 
	C142.159836,112.796761 140.235779,117.411255 139.079605,122.203064 
	C138.093216,126.291199 136.025391,127.588242 132.097046,127.053780 
	C130.142899,126.787918 128.122711,127.007530 125.498230,127.007530 
	C126.051521,124.959648 126.525658,123.204727 127.053482,121.057327 
z"/>
<path fill="#6FAB46" opacity="1.000000" stroke="none" 
	d="
M82.048630,123.119164 
	C84.444107,115.726036 86.957855,108.789467 89.056747,101.729576 
	C90.118958,98.156723 91.809235,96.428429 95.685738,96.939865 
	C97.960365,97.239967 100.306969,96.994621 103.196373,96.994621 
	C99.920677,106.746971 96.880165,116.004379 93.615631,125.182114 
	C93.309006,126.044151 91.624268,126.826553 90.520599,126.915329 
	C87.552803,127.154030 84.553177,126.996841 81.157249,126.996841 
	C81.496002,125.593506 81.745689,124.559120 82.048630,123.119164 
z"/>
<path fill="#6EAB46" opacity="1.000000" stroke="none" 
	d="
M105.065979,91.367317 
	C101.020523,92.351479 97.116699,92.939842 93.032967,93.555328 
	C94.196762,83.844482 93.594162,84.562683 107.166931,85.419472 
	C106.481056,87.363014 105.844330,89.167267 105.065979,91.367317 
z"/>
<path fill="#010201" opacity="0.000000" stroke="none" 
	d="
M62.375385,118.342819 
	C57.667603,120.068031 56.014339,119.210808 57.025848,115.155144 
	C57.894871,111.670792 60.072872,108.439590 62.083237,105.365341 
	C62.578918,104.607338 65.171341,104.267365 65.911934,104.854744 
	C66.923950,105.657417 67.871872,107.833252 67.466003,108.889900 
	C66.228874,112.110641 64.329514,115.077003 62.375385,118.342819 
z"/>
</svg>